# xmcd CD database file
#
# Track frame offsets:
#	150
#	18222
#	34693
#	56735
#	77193
#	99161
#	115875
#	136190
#	156878
#	175777
#	182005
#
# Disc length: 2647 seconds
#
# Revision: 4
# Processed by: cddbd v1.5.2PL0 Copyright (c) Steve Scherf et al.
# Submitted via: CDex 2.23
#
DISCID=800a550b
DTITLE=Brian Simpson - Above The Clouds
DYEAR=2007
DGENRE=Smooth Jazz
TTITLE0=What Cha Gonna Do?
TTITLE1=Juicy (feat. Kirk Whalum)
TTITLE2=From The Hip (feat. Chuck Loeb)
TTITLE3=Let's Get Close
TTITLE4=One More Time
TTITLE5=The Last Kiss
TTITLE6=Fiona's Song (feat. Dave Koz and Wayman Tisdale)
TTITLE7=Bali
TTITLE8=Above The Clouds (feat. George Duke)
TTITLE9=Memories Of You
TTITLE10=That's Right (feat. Michael Brecker)
EXTD=YEAR: 2007
EXTT0=
EXTT1=
EXTT2=
EXTT3=
EXTT4=
EXTT5=
EXTT6=
EXTT7=
EXTT8=
EXTT9=
EXTT10=
PLAYORDER=
